<mxfile host="app.diagrams.net" modified="2023-09-14T10:14:38.966Z" agent="Mozilla/5.0 (X11; Ubuntu; Linux x86_64; rv:109.0) Gecko/20100101 Firefox/116.0" version="21.2.9" etag="0qdh80ftl1-vgEV8Hxaj" type="github">
  <diagram name="Page-1" id="01PTlW9WeC5P6VLFs4NN">
    <mxGraphModel>
      <root>
        <mxCell id="0" />
        <mxCell id="1" parent="0" />
      </root>
    </mxGraphModel>
  </diagram>
</mxfile>
